# xmcd
#
# Track frame offsets: 
#        150
#        11648
#        25364
#
# Disc length: 503 seconds
#
# Revision: 0
# Processed by: cddbd v1.5.2PL0 Copyright (c) Steve Scherf et al.
# Submitted via: ExactAudioCopy v0.99pb5
#
DISCID=1b01f503
DTITLE=Yeti - Keep Pushin' On
DYEAR=2005
DGENRE=Moshi Moshi
TTITLE0=Keep Pushin' On
TTITLE1=In Like With You
TTITLE2=Carpet Road
EXTD=
EXTT0=
EXTT1=
EXTT2=
PLAYORDER=
